<svg xmlns="http://www.w3.org/2000/svg" width="430" height="430" fill="none" viewBox="0 0 430 430"><g stroke="#000" stroke-linejoin="round" stroke-width="18"><path stroke-linecap="round" d="m269.571 289.571 53.804 53.804m-195.668-98.003-60.056 50.393m59.151-108.396-60.45-50.723"/><path d="M379.64 248.597A168.8 168.8 0 0 0 383 215c0-11.506-1.157-22.741-3.36-33.597v-.003h-151.2v67.2h72.661c-13.441 34.418-46.924 58.8-86.101 58.8-51.031 0-92.4-41.369-92.4-92.4s41.369-92.4 92.4-92.4c20.621 0 39.665 6.755 55.039 18.174l53.377-54.114C294.156 61.917 256.32 47 215 47c-92.784 0-168 75.216-168 168s75.216 168 168 168c81.277 0 149.073-57.717 164.639-134.4z"/></g></svg>